<svg xmlns="http://www.w3.org/2000/svg" width="800" height="520" viewBox="0 0 800 520">
  <defs>
    <linearGradient id="bg" x1="0" y1="0" x2="1" y2="1">
      <stop offset="0" stop-color="#0f172a"/>
      <stop offset="0.52" stop-color="#172554"/>
      <stop offset="1" stop-color="#7f1d1d"/>
    </linearGradient>
    <linearGradient id="card" x1="0" y1="0" x2="1" y2="1">
      <stop offset="0" stop-color="rgba(255,255,255,0.18)"/>
      <stop offset="1" stop-color="rgba(255,255,255,0.06)"/>
    </linearGradient>
  </defs>
  <rect width="800" height="520" fill="url(#bg)"/>
  <circle cx="678" cy="82" r="118" fill="rgba(248,113,113,0.16)"/>
  <circle cx="118" cy="438" r="132" fill="rgba(56,189,248,0.12)"/>

  <rect x="56" y="58" width="500" height="356" rx="24" fill="rgba(15,23,42,0.76)" stroke="rgba(255,255,255,0.24)"/>
  <rect x="56" y="58" width="500" height="54" rx="24" fill="rgba(255,255,255,0.08)"/>
  <circle cx="92" cy="85" r="8" fill="#ef4444"/>
  <circle cx="118" cy="85" r="8" fill="#fbbf24"/>
  <circle cx="144" cy="85" r="8" fill="#22c55e"/>
  <text x="178" y="92" fill="#f8fafc" font-size="20" font-family="Arial, sans-serif" font-weight="700">Capataz Operations</text>

  <rect x="84" y="138" width="132" height="78" rx="16" fill="url(#card)" stroke="rgba(255,255,255,0.18)"/>
  <text x="104" y="168" fill="#cbd5e1" font-size="14" font-family="Arial, sans-serif">Time Logs</text>
  <text x="104" y="198" fill="#ffffff" font-size="26" font-family="Arial, sans-serif" font-weight="700">1,248</text>

  <rect x="238" y="138" width="132" height="78" rx="16" fill="url(#card)" stroke="rgba(255,255,255,0.18)"/>
  <text x="258" y="168" fill="#cbd5e1" font-size="14" font-family="Arial, sans-serif">Requests</text>
  <text x="258" y="198" fill="#ffffff" font-size="26" font-family="Arial, sans-serif" font-weight="700">86</text>

  <rect x="392" y="138" width="132" height="78" rx="16" fill="url(#card)" stroke="rgba(255,255,255,0.18)"/>
  <text x="412" y="168" fill="#cbd5e1" font-size="14" font-family="Arial, sans-serif">Facilities</text>
  <text x="412" y="198" fill="#ffffff" font-size="26" font-family="Arial, sans-serif" font-weight="700">12</text>

  <rect x="84" y="242" width="440" height="134" rx="18" fill="rgba(255,255,255,0.08)" stroke="rgba(255,255,255,0.18)"/>
  <rect x="110" y="270" width="158" height="14" rx="7" fill="#93c5fd"/>
  <rect x="110" y="304" width="368" height="12" rx="6" fill="rgba(255,255,255,0.45)"/>
  <rect x="110" y="334" width="276" height="12" rx="6" fill="rgba(255,255,255,0.32)"/>
  <path d="M426 278l18 18 38-44" fill="none" stroke="#22c55e" stroke-width="12" stroke-linecap="round" stroke-linejoin="round"/>

  <rect x="584" y="116" width="158" height="300" rx="30" fill="#060b14" stroke="rgba(255,255,255,0.28)" stroke-width="3"/>
  <rect x="600" y="150" width="126" height="232" rx="18" fill="rgba(255,255,255,0.09)"/>
  <rect x="633" y="130" width="58" height="8" rx="4" fill="rgba(255,255,255,0.26)"/>
  <text x="625" y="190" fill="#f8fafc" font-size="17" font-family="Arial, sans-serif" font-weight="700">DTR</text>
  <circle cx="663" cy="244" r="38" fill="rgba(34,197,94,0.18)" stroke="#22c55e" stroke-width="4"/>
  <path d="M646 245l12 12 25-29" fill="none" stroke="#86efac" stroke-width="7" stroke-linecap="round" stroke-linejoin="round"/>
  <rect x="622" y="308" width="82" height="16" rx="8" fill="#f87171"/>
  <rect x="622" y="338" width="62" height="10" rx="5" fill="rgba(255,255,255,0.46)"/>

  <text x="74" y="466" fill="#ffffff" font-size="34" font-family="Arial, sans-serif" font-weight="700">Attendance, Requests, Scheduling</text>
  <text x="76" y="492" fill="#cbd5e1" font-size="16" font-family="Arial, sans-serif">Angular + Ionic Angular + TypeScript + API Integration</text>
</svg>
